<svg version="1.0" xmlns="http://www.w3.org/2000/svg" width="221" height="857" viewBox="0 0 221.000000 857.000000" preserveAspectRatio="xMidYMid meet">
	<g transform="translate(0 857) scale(0.1 -0.1)" fill="black" stroke="none">
		<path d="M687 8362l-87-87 0-495 0-494 81-83c44-45 79-88 77-95-3-9-35-14-106-16-102-3-102-3-117-32l-16-30-94 0c-52 0-97-4-100-10-3-6-7-367-8-803l-2-792-47 0c-26 0-52-5-57-10-7-7-11-272-11-815 0-443 0-810 0-817 0-24 44-35 148-36l107-2 3-242 2-243-149 0c-147 0-150 0-169-24-15-20-18-34-12-71 4-25 12-51 18-57 6-6 57-10 129-9l118 2 58-59c36-37 55-62 48-66-7-5-11-78-11-227l0-219-193 0c-137 0-196-3-205-12-16-16-17-234 0-244 6-4 97-8 202-8l191-1 5-474 5-474 128-38c70-21 132-41 137-44 6-3 10-46 10-95l0-89-82-3-83-3 0-95 0-95 118-3c64-1 117-5 117-8 0-19 81-651 85-661 6-18 350-18 362 0 4 6 26 158 48 337l40 325 115 3c76 2 117 7 122 15 13 20 9 162-4 175-7 7-42 12-85 12l-73 0 0 93 0 94 128 37c70 21 133 43 140 48 9 8 12 116 12 480l0 469 196-2c159-2 198 1 205 12 5 8 9 60 9 116 0 79-3 105-16 117-13 13-46 16-205 16l-189 0 0 212c0 174-3 214-15 228-14 15-10 22 45 74l60 57 115-2c139-3 155 6 155 81 0 75-10 80-183 80l-147 0 0 246 0 245 110-2c94-2 113 0 130 16 20 18 20 29 20 831 0 774-1 814-18 823-10 5-37 7-60 4l-42-6-2 804-3 804-88 3c-88 3-88 3-99 32l-10 30-119 0c-118 0-119 0-119 23 0 17 25 48 80 101l80 77 0 487 0 488-92 92-92 92-331 0-330 0-88-88zm763-27 44-45-384 0-384 0 44 45 44 45 296 0 296 0 44-45zm90-555 0-440-435 0-435 0 0 440 0 440 435 0 435 0 0-440zm-90-555-44-45-298 0-298 0-40 36c-22 20-40 40-40 45 0 5 168 9 382 9l382 0-44-45zm-60-125c0-6-100-10-280-10-180 0-280 4-280 10 0 6 100 10 280 10 180 0 280-4 280-10zm440-949c0-883-8-801 76-801l44 0 0-755 0-755-840 0-840 0 0 755 0 755 48 0c26 0 53 5 60 12 9 9 12 199 12 795l0 783 720 0 720 0 0-789zm-145-2646 0-240-577-3-578-2 0 245 0 245 578-2 577-3 0-240zm335-325c0-7-310-10-910-10-600 0-910 3-910 10 0 7 310 10 910 10 600 0 910-3 910-10zm-365-140-59-60-490 0-490 0-53 52c-29 29-53 56-53 60 0 4 271 8 602 8l602 0-59-60zm-5-320 0-190-545 0-545 0 0 190 0 190 545 0 545-1 0-189zm410-325 0-55-955 0-955 0 0 55 0 55 955 0 955 0 0-55zm-410-570 0-445-545 0-545 0 0 438c0 241 3 442 7 445 3 4 249 7 545 7l538 0 0-445zm-377-522c-89-2-237-2-330 0-92 1-19 3 162 3 182 0 257-2 168-3zm97-163 0-90-265 0-265 0 0 83c0 46 3 87 7 90 3 4 123 7 265 7l258 0 0-90zm170-190 0-30-435 0-435 0 0 30 0 30 435 0 435 0 0-30zm-240-117c0-10-16-142-35-293-19-151-35-281-35-287 0-10-31-13-120-13-116 0-120 1-125 23-2 12-18 137-35 277-17 140-33 267-36 283l-6 27 196 0c180 0 196-1 196-17z" fill="white" />
	</g>
</svg>